# 3ds Max Wavefront OBJ Exporter v0.97b - (c)2007 guruware
# 创建的文件:03.12.2015 23:29:25

#
# object Box001
#

v  -12.529964 -12.529964 12.529964
v  -12.529964 -12.529964 -12.529964
v  12.529964 -12.529964 -12.529964
v  12.529964 -12.529964 12.529964
v  -12.529964 12.529964 12.529964
v  12.529964 12.529964 12.529964
v  12.529964 12.529964 -12.529964
v  -12.529964 12.529964 -12.529964
# 8 vertices

vn 0.000000 -1.000000 -0.000000
vn 0.000000 1.000000 -0.000000
vn 0.000000 0.000000 1.000000
vn 1.000000 0.000000 -0.000000
vn 0.000000 0.000000 -1.000000
vn -1.000000 0.000000 -0.000000
# 6 vertex normals

vt 0.749679 0.041230 0.000000
vt 0.749679 0.232881 0.000000
vt 0.500679 0.232881 0.000000
vt 0.500679 0.041230 0.000000
vt 0.749679 0.760261 0.000000
vt 0.500679 0.760261 0.000000
vt 0.500679 0.500590 0.000000
vt 0.749679 0.500590 0.000000
vt 0.002679 0.232881 0.000000
vt 0.251679 0.232881 0.000000
vt 0.251679 0.500590 0.000000
vt 0.002679 0.500590 0.000000
vt 0.998679 0.232881 0.000000
vt 0.998679 0.500590 0.000000
# 14 texture coords

g Box001
f 1/1/1 2/2/1 3/3/1 
f 3/3/1 4/4/1 1/1/1 
f 5/5/2 6/6/2 7/7/2 
f 7/7/2 8/8/2 5/5/2 
f 1/9/3 4/10/3 6/11/3 
f 6/11/3 5/12/3 1/9/3 
f 4/10/4 3/3/4 7/7/4 
f 7/7/4 6/11/4 4/10/4 
f 3/3/5 2/2/5 8/8/5 
f 8/8/5 7/7/5 3/3/5 
f 2/2/6 1/13/6 5/14/6 
f 5/14/6 8/8/6 2/2/6 
# 12 faces

