# 3ds Max Wavefront OBJ Exporter v0.97b - (c)2007 guruware
# 创建的文件:04.12.2015 09:05:46

#
# object Cylinder001
#

v  0.000000 0.000000 -0.000000
v  6.519203 0.000000 -6.519203
v  9.219544 0.000000 -0.000000
v  -0.000000 0.000000 -9.219544
v  -6.519203 0.000000 -6.519203
v  -9.219544 0.000000 0.000001
v  -6.519201 0.000000 6.519203
v  0.000000 0.000000 9.219544
v  6.519202 0.000000 6.519203
v  6.519203 0.020000 -6.519203
v  9.219544 0.020000 -0.000000
v  -0.000000 0.020000 -9.219544
v  -6.519203 0.020000 -6.519203
v  -9.219544 0.020000 0.000001
v  -6.519201 0.020000 6.519203
v  0.000000 0.020000 9.219544
v  6.519202 0.020000 6.519203
v  6.519203 0.040000 -6.519203
v  9.219545 0.040000 -0.000000
v  -0.000000 0.040000 -9.219545
v  -6.519203 0.040000 -6.519203
v  -9.219545 0.040000 0.000001
v  -6.519202 0.040000 6.519204
v  0.000000 0.040000 9.219545
v  6.519203 0.040000 6.519204
v  6.519203 0.060000 -6.519203
v  9.219544 0.060000 -0.000000
v  -0.000000 0.060000 -9.219544
v  -6.519203 0.060000 -6.519203
v  -9.219544 0.060000 0.000001
v  -6.519201 0.060000 6.519203
v  0.000000 0.060000 9.219544
v  6.519202 0.060000 6.519203
v  6.519203 0.080000 -6.519203
v  9.219544 0.080000 -0.000000
v  -0.000000 0.080000 -9.219544
v  -6.519203 0.080000 -6.519203
v  -9.219544 0.080000 0.000001
v  -6.519201 0.080000 6.519203
v  0.000000 0.080000 9.219544
v  6.519202 0.080000 6.519203
v  6.519203 0.100000 -6.519203
v  9.219544 0.100000 -0.000000
v  -0.000000 0.100000 -9.219544
v  -6.519203 0.100000 -6.519203
v  -9.219544 0.100000 0.000001
v  -6.519201 0.100000 6.519203
v  0.000000 0.100000 9.219544
v  6.519202 0.100000 6.519203
v  0.000000 0.100000 -0.000000
# 50 vertices

vn 0.000000 -1.000000 -0.000000
vn 1.000000 0.000000 -0.000004
vn 0.707108 -0.000000 -0.707106
vn 1.000000 -0.000019 -0.000000
vn 0.707106 0.000000 -0.707108
vn -0.000000 -0.000019 -1.000000
vn -0.000002 0.000000 -1.000000
vn -0.707106 -0.000000 -0.707108
vn -0.707108 0.000000 -0.707106
vn -1.000000 -0.000019 -0.000001
vn -1.000000 0.000000 0.000002
vn -0.707107 -0.000025 0.707107
vn -0.707106 0.000000 0.707108
vn -0.000003 -0.000019 1.000000
vn 0.000002 0.000000 1.000000
vn 0.707109 -0.000028 0.707105
vn 0.707104 0.000000 0.707110
vn 0.707105 0.000000 -0.707109
vn 1.000000 -0.000000 -0.000000
vn -0.000000 0.000000 -1.000000
vn -1.000000 0.000000 0.000000
vn -0.707109 0.000000 0.707105
vn 0.000003 0.000000 1.000000
vn 0.707107 -0.000000 0.707107
vn 0.707107 0.000000 -0.707107
vn 1.000000 0.000019 -0.000001
vn 0.000001 0.000019 -1.000000
vn -0.707106 0.000000 -0.707108
vn -1.000000 0.000019 0.000000
vn -0.707106 0.000025 0.707108
vn -0.000000 0.000019 1.000000
vn 0.707105 0.000028 0.707109
vn 1.000000 0.000000 -0.000000
vn -0.707107 0.000000 -0.707107
vn -0.707107 0.000000 0.707107
vn 0.000000 0.000000 1.000000
vn 0.707107 0.000000 0.707107
vn 0.707108 0.000000 -0.707106
vn 1.000000 0.000000 0.000004
vn 0.000002 0.000000 -1.000000
vn -1.000000 0.000000 -0.000002
vn -0.707108 0.000000 0.707106
vn -0.000002 0.000000 1.000000
vn 0.707109 0.000000 0.707104
vn 0.000000 1.000000 -0.000000
# 45 vertex normals

vt 0.468880 0.531119 0.000000
vt 0.924049 0.724906 0.000000
vt 0.653706 0.990000 0.000000
vt 0.927761 0.346294 0.000000
vt 0.662667 0.075951 0.000000
vt 0.284055 0.072239 0.000000
vt 0.013712 0.337333 0.000000
vt 0.010000 0.715945 0.000000
vt 0.275094 0.986288 0.000000
vt 0.938243 0.741116 0.000000
vt 0.937674 0.926564 0.000000
vt 0.937674 0.741116 0.000000
vt 0.938243 0.926564 0.000000
vt 0.954910 0.170948 0.000000
vt 0.954341 0.356396 0.000000
vt 0.954341 0.170948 0.000000
vt 0.954910 0.356396 0.000000
vt 0.954341 0.541845 0.000000
vt 0.954910 0.541845 0.000000
vt 0.938243 0.170948 0.000000
vt 0.937674 0.356396 0.000000
vt 0.937674 0.170948 0.000000
vt 0.938243 0.356396 0.000000
vt 0.937674 0.541845 0.000000
vt 0.938243 0.541845 0.000000
vt 0.954910 0.555667 0.000000
vt 0.954341 0.741116 0.000000
vt 0.954341 0.555667 0.000000
vt 0.954910 0.741116 0.000000
vt 0.954341 0.926564 0.000000
vt 0.954910 0.926564 0.000000
vt 0.938243 0.555668 0.000000
vt 0.937674 0.555668 0.000000
vt 0.937105 0.926564 0.000000
vt 0.937105 0.741116 0.000000
vt 0.953772 0.356396 0.000000
vt 0.953772 0.170948 0.000000
vt 0.953772 0.541845 0.000000
vt 0.937105 0.356396 0.000000
vt 0.937105 0.170948 0.000000
vt 0.937105 0.541845 0.000000
vt 0.953772 0.741116 0.000000
vt 0.953772 0.555667 0.000000
vt 0.953772 0.926564 0.000000
vt 0.937105 0.555668 0.000000
vt 0.936536 0.926564 0.000000
vt 0.936536 0.741116 0.000000
vt 0.953203 0.356396 0.000000
vt 0.953203 0.170948 0.000000
vt 0.953203 0.541845 0.000000
vt 0.936536 0.356396 0.000000
vt 0.936536 0.170948 0.000000
vt 0.936536 0.541845 0.000000
vt 0.953203 0.741116 0.000000
vt 0.953203 0.555667 0.000000
vt 0.953203 0.926564 0.000000
vt 0.936536 0.555668 0.000000
vt 0.935967 0.926564 0.000000
vt 0.935967 0.741116 0.000000
vt 0.952635 0.356396 0.000000
vt 0.952635 0.170948 0.000000
vt 0.952635 0.541845 0.000000
vt 0.935967 0.356396 0.000000
vt 0.935967 0.170948 0.000000
vt 0.935967 0.541845 0.000000
vt 0.952635 0.741116 0.000000
vt 0.952635 0.555667 0.000000
vt 0.952635 0.926564 0.000000
vt 0.935967 0.555668 0.000000
vt 0.935398 0.926564 0.000000
vt 0.935398 0.741116 0.000000
vt 0.952066 0.356396 0.000000
vt 0.952066 0.170948 0.000000
vt 0.952066 0.541845 0.000000
vt 0.935398 0.356396 0.000000
vt 0.935398 0.170948 0.000000
vt 0.935398 0.541845 0.000000
vt 0.952066 0.741116 0.000000
vt 0.952066 0.555667 0.000000
vt 0.952066 0.926564 0.000000
vt 0.935398 0.555668 0.000000
vt 0.468979 0.530890 0.000000
vt 0.653804 0.989771 0.000000
vt 0.275193 0.986059 0.000000
vt 0.010099 0.715716 0.000000
vt 0.013811 0.337104 0.000000
vt 0.284154 0.072010 0.000000
vt 0.662766 0.075722 0.000000
vt 0.927860 0.346065 0.000000
vt 0.924148 0.724677 0.000000
# 90 texture coords

g Cylinder001
f 1/1/1 2/2/1 3/3/1 
f 1/1/1 4/4/1 2/2/1 
f 1/1/1 5/5/1 4/4/1 
f 1/1/1 6/6/1 5/5/1 
f 1/1/1 7/7/1 6/6/1 
f 1/1/1 8/8/1 7/7/1 
f 1/1/1 9/9/1 8/8/1 
f 1/1/1 3/3/1 9/9/1 
f 3/10/2 10/11/3 11/12/4 
f 3/10/2 2/13/5 10/11/3 
f 2/14/5 12/15/6 10/16/3 
f 2/14/5 4/17/7 12/15/6 
f 4/17/7 13/18/8 12/15/6 
f 4/17/7 5/19/9 13/18/8 
f 5/20/9 14/21/10 13/22/8 
f 5/20/9 6/23/11 14/21/10 
f 6/23/11 15/24/12 14/21/10 
f 6/23/11 7/25/13 15/24/12 
f 7/26/13 16/27/14 15/28/12 
f 7/26/13 8/29/15 16/27/14 
f 8/29/15 17/30/16 16/27/14 
f 8/29/15 9/31/17 17/30/16 
f 9/32/17 11/12/4 17/33/16 
f 9/32/17 3/10/2 11/12/4 
f 11/12/4 18/34/18 19/35/19 
f 11/12/4 10/11/3 18/34/18 
f 10/16/3 20/36/20 18/37/18 
f 10/16/3 12/15/6 20/36/20 
f 12/15/6 21/38/9 20/36/20 
f 12/15/6 13/18/8 21/38/9 
f 13/22/8 22/39/21 21/40/9 
f 13/22/8 14/21/10 22/39/21 
f 14/21/10 23/41/22 22/39/21 
f 14/21/10 15/24/12 23/41/22 
f 15/28/12 24/42/23 23/43/22 
f 15/28/12 16/27/14 24/42/23 
f 16/27/14 25/44/24 24/42/23 
f 16/27/14 17/30/16 25/44/24 
f 17/33/16 19/35/19 25/45/24 
f 17/33/16 11/12/4 19/35/19 
f 19/35/19 26/46/25 27/47/26 
f 19/35/19 18/34/18 26/46/25 
f 18/37/18 28/48/27 26/49/25 
f 18/37/18 20/36/20 28/48/27 
f 20/36/20 29/50/28 28/48/27 
f 20/36/20 21/38/9 29/50/28 
f 21/40/9 30/51/29 29/52/28 
f 21/40/9 22/39/21 30/51/29 
f 22/39/21 31/53/30 30/51/29 
f 22/39/21 23/41/22 31/53/30 
f 23/43/22 32/54/31 31/55/30 
f 23/43/22 24/42/23 32/54/31 
f 24/42/23 33/56/32 32/54/31 
f 24/42/23 25/44/24 33/56/32 
f 25/45/24 27/47/26 33/57/32 
f 25/45/24 19/35/19 27/47/26 
f 27/47/26 34/58/25 35/59/33 
f 27/47/26 26/46/25 34/58/25 
f 26/49/25 36/60/20 34/61/25 
f 26/49/25 28/48/27 36/60/20 
f 28/48/27 37/62/34 36/60/20 
f 28/48/27 29/50/28 37/62/34 
f 29/52/28 38/63/21 37/64/34 
f 29/52/28 30/51/29 38/63/21 
f 30/51/29 39/65/35 38/63/21 
f 30/51/29 31/53/30 39/65/35 
f 31/55/30 40/66/36 39/67/35 
f 31/55/30 32/54/31 40/66/36 
f 32/54/31 41/68/37 40/66/36 
f 32/54/31 33/56/32 41/68/37 
f 33/57/32 35/59/33 41/69/37 
f 33/57/32 27/47/26 35/59/33 
f 35/59/33 42/70/38 43/71/39 
f 35/59/33 34/58/25 42/70/38 
f 34/61/25 44/72/40 42/73/38 
f 34/61/25 36/60/20 44/72/40 
f 36/60/20 45/74/28 44/72/40 
f 36/60/20 37/62/34 45/74/28 
f 37/64/34 46/75/41 45/76/28 
f 37/64/34 38/63/21 46/75/41 
f 38/63/21 47/77/42 46/75/41 
f 38/63/21 39/65/35 47/77/42 
f 39/67/35 48/78/43 47/79/42 
f 39/67/35 40/66/36 48/78/43 
f 40/66/36 49/80/44 48/78/43 
f 40/66/36 41/68/37 49/80/44 
f 41/69/37 43/71/39 49/81/44 
f 41/69/37 35/59/33 43/71/39 
f 50/82/45 43/83/45 42/84/45 
f 50/82/45 42/84/45 44/85/45 
f 50/82/45 44/85/45 45/86/45 
f 50/82/45 45/86/45 46/87/45 
f 50/82/45 46/87/45 47/88/45 
f 50/82/45 47/88/45 48/89/45 
f 50/82/45 48/89/45 49/90/45 
f 50/82/45 49/90/45 43/83/45 
# 96 faces

