# 3ds Max Wavefront OBJ Exporter v0.97b - (c)2007 guruware
# 创建的文件:04.12.2015 08:36:25

#
# object Cylinder001
#

v  -6.000000 0.000000 0.000000
v  -5.858579 0.141421 0.000000
v  -5.800000 0.000000 0.000000
v  -6.000000 0.200000 0.000000
v  -6.141422 0.141421 0.000000
v  -6.200000 -0.000000 0.000000
v  -6.141422 -0.141421 0.000000
v  -6.000000 -0.200000 0.000000
v  -5.858579 -0.141421 0.000000
v  -5.858579 0.141421 20.000000
v  -5.800000 0.000000 20.000000
v  -6.000000 0.200000 20.000000
v  -6.141422 0.141421 20.000000
v  -6.200000 -0.000000 20.000000
v  -6.141422 -0.141421 20.000000
v  -6.000000 -0.200000 20.000000
v  -5.858579 -0.141421 20.000000
v  -6.000000 0.000000 20.000000
# 18 vertices

vn 0.000000 0.000000 -1.000000
vn 1.000000 -0.000000 0.000000
vn 0.707106 0.707107 0.000000
vn 1.000000 0.000000 0.000000
vn 0.707107 0.707107 0.000000
vn -0.000000 1.000000 0.000000
vn 0.000000 1.000000 0.000000
vn -0.707107 0.707106 0.000000
vn -0.707107 0.707107 0.000000
vn -1.000000 -0.000000 0.000000
vn -1.000000 0.000000 0.000000
vn -0.707106 -0.707107 0.000000
vn -0.707107 -0.707107 0.000000
vn 0.000000 -1.000000 0.000000
vn -0.000000 -1.000000 0.000000
vn 0.707107 -0.707107 0.000000
vn 0.707106 -0.707107 0.000000
vn 0.000000 0.000000 1.000000
# 18 vertex normals

vt 0.500000 0.000000 0.000000
vt 0.875000 0.000000 1.000000
vt 0.750000 0.000000 1.000000
vt 0.000000 0.000000 1.000000
vt -0.125000 0.000000 1.000000
vt 0.125000 0.000000 1.000000
vt 0.250000 0.000000 1.000000
vt 0.375000 0.000000 1.000000
vt 0.500000 0.000000 1.000000
vt 0.625000 0.000000 1.000000
vt 0.875000 1.000000 1.000000
vt 0.750000 1.000000 1.000000
vt 0.000000 1.000000 1.000000
vt -0.125000 1.000000 1.000000
vt 0.125000 1.000000 1.000000
vt 0.250000 1.000000 1.000000
vt 0.375000 1.000000 1.000000
vt 0.500000 1.000000 1.000000
vt 0.625000 1.000000 1.000000
vt 0.500000 1.000000 0.000000
# 20 texture coords

g Cylinder001
f 1/1/1 2/2/1 3/3/1 
f 1/1/1 4/4/1 2/5/1 
f 1/1/1 5/6/1 4/4/1 
f 1/1/1 6/7/1 5/6/1 
f 1/1/1 7/8/1 6/7/1 
f 1/1/1 8/9/1 7/8/1 
f 1/1/1 9/10/1 8/9/1 
f 1/1/1 3/3/1 9/10/1 
f 3/3/2 10/11/3 11/12/4 
f 3/3/2 2/2/5 10/11/3 
f 2/5/5 12/13/6 10/14/3 
f 2/5/5 4/4/7 12/13/6 
f 4/4/7 13/15/8 12/13/6 
f 4/4/7 5/6/9 13/15/8 
f 5/6/9 14/16/10 13/15/8 
f 5/6/9 6/7/11 14/16/10 
f 6/7/11 15/17/12 14/16/10 
f 6/7/11 7/8/13 15/17/12 
f 7/8/13 16/18/14 15/17/12 
f 7/8/13 8/9/15 16/18/14 
f 8/9/15 17/19/16 16/18/14 
f 8/9/15 9/10/17 17/19/16 
f 9/10/17 11/12/4 17/19/16 
f 9/10/17 3/3/2 11/12/4 
f 18/20/18 11/12/18 10/11/18 
f 18/20/18 10/14/18 12/13/18 
f 18/20/18 12/13/18 13/15/18 
f 18/20/18 13/15/18 14/16/18 
f 18/20/18 14/16/18 15/17/18 
f 18/20/18 15/17/18 16/18/18 
f 18/20/18 16/18/18 17/19/18 
f 18/20/18 17/19/18 11/12/18 
# 32 faces

#
# object Cylinder002
#

v  6.000000 0.000000 0.000000
v  6.141422 0.141421 0.000000
v  6.200000 0.000000 0.000000
v  6.000000 0.200000 0.000000
v  5.858579 0.141421 0.000000
v  5.800000 -0.000000 0.000000
v  5.858579 -0.141421 0.000000
v  6.000000 -0.200000 0.000000
v  6.141422 -0.141421 0.000000
v  6.141422 0.141421 20.000000
v  6.200000 0.000000 20.000000
v  6.000000 0.200000 20.000000
v  5.858579 0.141421 20.000000
v  5.800000 -0.000000 20.000000
v  5.858579 -0.141421 20.000000
v  6.000000 -0.200000 20.000000
v  6.141422 -0.141421 20.000000
v  6.000000 0.000000 20.000000
# 18 vertices

vn 0.000000 0.000000 -1.000000
vn 1.000000 -0.000000 0.000000
vn 0.707106 0.707107 0.000000
vn 1.000000 0.000000 0.000000
vn 0.707107 0.707107 0.000000
vn -0.000000 1.000000 0.000000
vn 0.000000 1.000000 0.000000
vn -0.707107 0.707106 0.000000
vn -0.707107 0.707107 0.000000
vn -1.000000 -0.000000 0.000000
vn -1.000000 0.000000 0.000000
vn -0.707106 -0.707107 0.000000
vn -0.707107 -0.707107 0.000000
vn 0.000000 -1.000000 0.000000
vn -0.000000 -1.000000 0.000000
vn 0.707107 -0.707107 0.000000
vn 0.707106 -0.707107 0.000000
vn 0.000000 0.000000 1.000000
# 18 vertex normals

vt 0.500000 0.000000 0.000000
vt 0.875000 0.000000 1.000000
vt 0.750000 0.000000 1.000000
vt 0.000000 0.000000 1.000000
vt -0.125000 0.000000 1.000000
vt 0.125000 0.000000 1.000000
vt 0.250000 0.000000 1.000000
vt 0.375000 0.000000 1.000000
vt 0.500000 0.000000 1.000000
vt 0.625000 0.000000 1.000000
vt 0.875000 1.000000 1.000000
vt 0.750000 1.000000 1.000000
vt 0.000000 1.000000 1.000000
vt -0.125000 1.000000 1.000000
vt 0.125000 1.000000 1.000000
vt 0.250000 1.000000 1.000000
vt 0.375000 1.000000 1.000000
vt 0.500000 1.000000 1.000000
vt 0.625000 1.000000 1.000000
vt 0.500000 1.000000 0.000000
# 20 texture coords

g Cylinder002
f 19/21/19 20/22/19 21/23/19 
f 19/21/19 22/24/19 20/25/19 
f 19/21/19 23/26/19 22/24/19 
f 19/21/19 24/27/19 23/26/19 
f 19/21/19 25/28/19 24/27/19 
f 19/21/19 26/29/19 25/28/19 
f 19/21/19 27/30/19 26/29/19 
f 19/21/19 21/23/19 27/30/19 
f 21/23/20 28/31/21 29/32/22 
f 21/23/20 20/22/23 28/31/21 
f 20/25/23 30/33/24 28/34/21 
f 20/25/23 22/24/25 30/33/24 
f 22/24/25 31/35/26 30/33/24 
f 22/24/25 23/26/27 31/35/26 
f 23/26/27 32/36/28 31/35/26 
f 23/26/27 24/27/29 32/36/28 
f 24/27/29 33/37/30 32/36/28 
f 24/27/29 25/28/31 33/37/30 
f 25/28/31 34/38/32 33/37/30 
f 25/28/31 26/29/33 34/38/32 
f 26/29/33 35/39/34 34/38/32 
f 26/29/33 27/30/35 35/39/34 
f 27/30/35 29/32/22 35/39/34 
f 27/30/35 21/23/20 29/32/22 
f 36/40/36 29/32/36 28/31/36 
f 36/40/36 28/34/36 30/33/36 
f 36/40/36 30/33/36 31/35/36 
f 36/40/36 31/35/36 32/36/36 
f 36/40/36 32/36/36 33/37/36 
f 36/40/36 33/37/36 34/38/36 
f 36/40/36 34/38/36 35/39/36 
f 36/40/36 35/39/36 29/32/36 
# 32 faces

