# 3ds Max Wavefront OBJ Exporter v0.97b - (c)2007 guruware
# 创建的文件:02.12.2015 20:15:46

#
# object dock
#

v  -0.021140 -0.252179 -0.092666
v  -0.018310 -0.241627 -0.093143
v  0.021120 -0.252179 -0.092666
v  0.018290 -0.241627 -0.093143
v  0.010550 -0.233896 -0.093496
v  -0.010570 -0.233896 -0.093496
v  -0.000010 -0.231074 -0.093629
v  0.018290 -0.262732 -0.092190
v  -0.018310 -0.262732 -0.092190
v  -0.010580 -0.270453 -0.091836
v  0.010550 -0.270453 -0.091836
v  -0.000010 -0.273285 -0.091704
v  -0.025880 -0.243569 -0.102670
v  -0.025880 -0.244197 -0.116398
v  -0.025880 -0.252962 -0.102242
v  -0.025880 -0.253591 -0.115970
v  -0.012020 -0.279079 -0.095557
v  -0.015010 -0.279079 -0.095557
v  -0.013050 -0.272304 -0.096687
v  -0.016030 -0.272304 -0.096687
v  -0.017490 -0.258838 -0.105399
v  -0.020480 -0.258838 -0.105399
v  -0.019770 -0.253198 -0.124538
v  -0.016480 -0.253198 -0.124538
v  -0.016480 -0.247239 -0.141140
v  -0.019470 -0.247239 -0.141140
v  -0.016480 -0.241960 -0.143054
v  -0.018480 -0.278778 -0.106733
v  -0.018480 -0.280138 -0.099956
v  -0.018480 -0.272633 -0.105490
v  -0.018480 -0.274002 -0.098724
v  -0.013520 -0.273249 -0.129506
v  -0.015740 -0.271079 -0.129074
v  -0.011300 -0.271079 -0.129074
v  -0.013520 -0.268899 -0.128631
v  -0.015310 -0.241627 -0.093143
v  -0.019770 -0.241131 -0.122492
v  -0.016480 -0.241131 -0.122492
v  -0.019470 -0.238293 -0.138876
v  -0.016480 -0.238293 -0.138876
v  -0.019470 -0.241960 -0.143054
v  0.016200 -0.254980 -0.138157
v  0.011960 -0.256442 -0.116763
v  0.015270 -0.240703 -0.130204
v  0.010070 -0.241072 -0.109597
v  0.019610 -0.240703 -0.130204
v  0.014410 -0.241072 -0.109597
v  0.003000 -0.263931 -0.092135
v  0.002040 -0.242393 -0.093110
v  0.006380 -0.242393 -0.093110
v  -0.019300 -0.252962 -0.102242
v  -0.019300 -0.243569 -0.102670
v  -0.015010 -0.278950 -0.092805
v  -0.012020 -0.278950 -0.092805
v  -0.015330 -0.262732 -0.092190
v  -0.013520 -0.275365 -0.096585
v  -0.011300 -0.277535 -0.097017
v  -0.013520 -0.279715 -0.097460
v  -0.012730 -0.264744 -0.155982
v  -0.012730 -0.271532 -0.122328
v  -0.012730 -0.266490 -0.156337
v  -0.012730 -0.273268 -0.122682
v  0.031270 -0.241131 -0.122492
v  0.031270 -0.253198 -0.124538
v  0.031270 -0.247239 -0.141140
v  0.031270 -0.238293 -0.138876
v  0.031270 -0.241960 -0.143054
v  -0.014660 -0.272400 -0.122505
v  -0.014660 -0.265612 -0.156159
v  0.007350 -0.263931 -0.092135
v  0.016310 -0.256442 -0.116763
v  0.020540 -0.254980 -0.138157
v  -0.018220 -0.252179 -0.092666
v  0.028290 -0.241960 -0.143054
v  0.028290 -0.238293 -0.138876
v  0.028290 -0.241131 -0.122492
v  0.015300 -0.241627 -0.093143
v  -0.016910 -0.240864 -0.097472
v  -0.019020 -0.234138 -0.138069
v  -0.014220 -0.238240 -0.097181
v  -0.016330 -0.231514 -0.137768
v  -0.016850 -0.235610 -0.096608
v  -0.018960 -0.228884 -0.137195
v  -0.011130 -0.272633 -0.105490
v  -0.011130 -0.278778 -0.106733
v  -0.011130 -0.274002 -0.098724
v  0.017960 -0.252179 -0.092666
v  0.028290 -0.253198 -0.124538
v  0.015300 -0.262732 -0.092190
v  0.028290 -0.247239 -0.141140
v  -0.021650 -0.231498 -0.137495
v  -0.019300 -0.244197 -0.116398
v  -0.019300 -0.253591 -0.115970
v  -0.019540 -0.238234 -0.096899
v  -0.011130 -0.280138 -0.099956
v  -0.015740 -0.277535 -0.097017
v  -0.013520 -0.278335 -0.093072
# 97 vertices

vn 0.000000 -0.045087 -0.998983
vn 0.000000 -0.045461 -0.998966
vn 0.000000 -0.045362 -0.998971
vn -1.000000 0.000000 0.000000
vn 0.000000 -0.165129 -0.986272
vn 0.000000 -0.752068 -0.659086
vn 0.000000 -0.334835 -0.942277
vn 0.000000 -0.386388 -0.922336
vn 0.000000 -0.786947 -0.617021
vn 0.000000 -0.819239 -0.573452
vn 0.000000 -0.950805 -0.309790
vn 0.000000 -0.950489 -0.310759
vn 0.000000 -0.708090 -0.706122
vn 0.000000 -0.709842 -0.704361
vn 0.000000 -0.340226 -0.940344
vn 0.000000 0.197643 -0.980274
vn 0.000000 0.999860 0.016762
vn 0.000000 0.995489 0.094878
vn 0.000000 0.995658 0.093086
vn 0.000000 0.963156 -0.268943
vn 0.000000 0.962429 -0.271535
vn 0.000000 0.248322 -0.968678
vn 0.000000 0.750736 -0.660603
vn -0.980603 0.042742 -0.191289
vn -0.962863 0.024278 -0.268897
vn -0.725458 0.672501 -0.146469
vn -0.645905 0.740829 -0.184336
vn 0.000000 0.999840 0.017866
vn 0.000000 0.999139 0.041491
vn -0.920689 -0.013339 -0.390069
vn -0.778113 0.530192 -0.336802
vn 0.000000 0.996824 0.079637
vn 0.000000 0.045461 0.998966
vn 0.000000 -0.664229 0.747529
vn 0.000000 -0.037894 0.999282
vn 0.707127 0.693142 0.139736
vn 1.000000 0.000000 0.000000
vn 0.707077 -0.693193 -0.139735
vn 0.882711 0.254752 0.394870
vn 0.937150 -0.024922 0.348037
vn 0.985175 0.003972 0.171505
vn 0.984504 -0.047097 0.168921
vn -0.416594 0.891164 0.179653
vn -0.416594 -0.891164 -0.179653
vn 0.895403 0.060137 0.441176
vn 0.542016 -0.839899 -0.028073
vn 0.944116 0.003606 0.329592
vn 0.726003 -0.681136 0.094724
vn 0.976780 -0.023369 0.212967
vn 0.612899 -0.787263 0.067611
vn 0.000000 -0.980055 -0.198726
vn 0.000000 -0.997674 -0.068167
vn 0.962747 -0.266981 -0.042883
vn 0.999478 -0.005939 -0.031743
vn 0.999307 -0.032342 0.018435
vn 0.999546 -0.003636 0.029898
vn 0.994384 0.105805 0.002289
vn 0.965055 0.255121 -0.059851
vn 0.977073 0.211369 0.025537
vn 0.986065 0.164896 0.022047
vn 0.988896 0.148460 -0.006705
vn 0.000000 0.996379 0.085018
vn 0.000000 0.994374 0.105924
vn 0.698394 -0.699338 -0.152224
vn 0.998628 -0.002421 -0.052315
vn 0.713823 0.695942 0.078242
vn 0.000000 0.980274 0.197643
vn -0.885917 -0.241502 -0.396015
vn -0.984839 -0.002095 -0.173459
vn -0.936304 0.022925 -0.350441
vn -0.984124 0.045914 -0.171438
vn -0.926034 0.219674 -0.306928
vn -0.051198 0.163341 -0.985240
vn 0.051198 -0.163341 0.985240
vn 0.000000 -0.998966 0.045461
vn 0.000000 -0.959230 -0.282626
vn 0.000000 -0.951598 -0.307345
vn 0.000000 -0.949459 -0.313892
vn -0.707077 0.693193 0.139735
vn -0.707127 -0.693142 -0.139736
vn -0.999914 0.002834 -0.012801
vn -0.999912 0.003241 -0.012865
vn -0.999259 0.032442 -0.020733
vn -0.999507 0.002754 -0.031279
vn -0.999218 0.003661 0.039374
vn -0.963912 0.261014 0.052395
vn -0.993657 -0.112317 0.005570
vn -0.965607 -0.252732 0.061069
vn -0.977138 -0.211119 -0.025114
vn -0.986099 -0.164720 -0.021831
vn 0.000000 -0.197643 0.980274
vn 0.000000 -0.998971 0.045362
vn -0.698394 0.699338 0.152224
vn -0.998628 0.002421 0.052315
vn -0.713823 -0.695942 -0.078242
vn -0.713872 -0.695892 -0.078236
vn 0.000000 -0.980274 -0.197643
vn 0.000000 0.998966 -0.045461
vn 0.000000 -0.956773 -0.290837
vn 0.924118 -0.234188 0.301930
vn -0.988896 -0.148460 0.006705
# 101 vertex normals

vt 0.320600 0.673000 0.000000
vt 0.304700 0.668800 0.000000
vt 0.320600 0.609200 0.000000
vt 0.304700 0.613500 0.000000
vt 0.293000 0.625200 0.000000
vt 0.293000 0.657100 0.000000
vt 0.288700 0.641100 0.000000
vt 0.714200 0.352400 0.000000
vt 0.714200 0.342000 0.000000
vt 0.721300 0.352400 0.000000
vt 0.721300 0.342000 0.000000
vt 0.668600 0.467600 0.000000
vt 0.667000 0.469200 0.000000
vt 0.663500 0.467000 0.000000
vt 0.661900 0.468600 0.000000
vt 0.653300 0.461200 0.000000
vt 0.651400 0.462500 0.000000
vt 0.646500 0.448200 0.000000
vt 0.648800 0.447300 0.000000
vt 0.643500 0.435000 0.000000
vt 0.641500 0.435900 0.000000
vt 0.639500 0.433800 0.000000
vt 0.669300 0.449600 0.000000
vt 0.669300 0.454800 0.000000
vt 0.664500 0.449600 0.000000
vt 0.664500 0.454800 0.000000
vt 0.668600 0.456600 0.000000
vt 0.666900 0.456600 0.000000
vt 0.665200 0.456600 0.000000
vt 0.638900 0.472300 0.000000
vt 0.636600 0.472500 0.000000
vt 0.637500 0.450200 0.000000
vt 0.635000 0.450500 0.000000
vt 0.634800 0.437900 0.000000
vt 0.632500 0.438200 0.000000
vt 0.637400 0.434600 0.000000
vt 0.635200 0.434900 0.000000
vt 0.528800 0.208800 0.000000
vt 0.485800 0.203900 0.000000
vt 0.511500 0.236900 0.000000
vt 0.469900 0.234300 0.000000
vt 0.511500 0.245700 0.000000
vt 0.469900 0.243100 0.000000
vt 0.436800 0.186600 0.000000
vt 0.436800 0.230100 0.000000
vt 0.436800 0.238900 0.000000
vt 0.721300 0.357300 0.000000
vt 0.714200 0.357300 0.000000
vt 0.667100 0.471300 0.000000
vt 0.667700 0.473400 0.000000
vt 0.654800 0.472300 0.000000
vt 0.655400 0.474500 0.000000
vt 0.665200 0.431300 0.000000
vt 0.666900 0.431300 0.000000
vt 0.668600 0.431300 0.000000
vt 0.670800 0.431000 0.000000
vt 0.670800 0.456900 0.000000
vt 0.673400 0.431000 0.000000
vt 0.673400 0.456900 0.000000
vt 0.434300 0.096800 0.000000
vt 0.434300 0.104800 0.000000
vt 0.456400 0.095400 0.000000
vt 0.458300 0.104400 0.000000
vt 0.470700 0.099400 0.000000
vt 0.468700 0.092700 0.000000
vt 0.471900 0.095300 0.000000
vt 0.672100 0.456900 0.000000
vt 0.672100 0.431000 0.000000
vt 0.485800 0.195200 0.000000
vt 0.528800 0.200100 0.000000
vt 0.659700 0.425900 0.000000
vt 0.651700 0.425900 0.000000
vt 0.661000 0.448100 0.000000
vt 0.652000 0.450000 0.000000
vt 0.663700 0.460300 0.000000
vt 0.657100 0.462300 0.000000
vt 0.661100 0.463600 0.000000
vt 0.647100 0.435800 0.000000
vt 0.643700 0.425900 0.000000
vt 0.636600 0.429700 0.000000
vt 0.631400 0.427000 0.000000
vt 0.631500 0.429000 0.000000
vt 0.440200 0.089600 0.000000
vt 0.443500 0.092200 0.000000
vt 0.440200 0.091900 0.000000
vt 0.443500 0.094500 0.000000
vt 0.455800 0.089500 0.000000
vt 0.455800 0.091800 0.000000
vt 0.477900 0.088200 0.000000
vt 0.477900 0.090400 0.000000
vt 0.167100 0.626100 0.000000
vt 0.198200 0.626100 0.000000
vt 0.167100 0.628900 0.000000
vt 0.198200 0.628900 0.000000
vt 0.167100 0.631800 0.000000
vt 0.198200 0.631800 0.000000
vt 0.664400 0.449500 0.000000
vt 0.669400 0.449500 0.000000
vt 0.664400 0.454900 0.000000
vt 0.477900 0.080200 0.000000
vt 0.453800 0.080500 0.000000
vt 0.477900 0.072200 0.000000
vt 0.441500 0.085600 0.000000
vt 0.201000 0.626100 0.000000
vt 0.201000 0.628900 0.000000
vt 0.714200 0.337000 0.000000
vt 0.721300 0.337000 0.000000
vt 0.164200 0.626100 0.000000
vt 0.164200 0.628900 0.000000
vt 0.726300 0.342000 0.000000
vt 0.726300 0.352400 0.000000
vt 0.434300 0.115000 0.000000
vt 0.458300 0.106700 0.000000
vt 0.434300 0.112700 0.000000
vt 0.470700 0.101600 0.000000
vt 0.471900 0.097600 0.000000
vt 0.646900 0.472300 0.000000
vt 0.669400 0.454900 0.000000
vt 0.669400 0.471200 0.000000
vt 0.669300 0.469100 0.000000
vt 0.709300 0.352400 0.000000
vt 0.709300 0.342000 0.000000
vt 0.666900 0.457100 0.000000
vt 0.666900 0.459600 0.000000
vt 0.436800 0.177800 0.000000
# 125 texture coords

g dock
f 1/1/1 2/2/1 3/3/1 
f 2/2/2 4/4/2 3/3/2 
f 4/4/2 2/2/2 5/5/2 
f 2/2/2 6/6/2 5/5/2 
f 5/5/2 6/6/2 7/7/2 
f 3/3/2 8/4/2 1/1/2 
f 8/4/2 9/2/2 1/1/2 
f 9/2/2 8/4/2 10/6/2 
f 8/4/2 11/5/2 10/6/2 
f 10/6/2 11/5/2 12/7/3 
f 13/8/4 14/9/4 15/10/4 
f 14/9/4 16/11/4 15/10/4 
f 17/12/5 18/13/6 19/14/7 
f 18/13/6 20/15/8 19/14/7 
f 19/14/7 20/15/8 21/16/9 
f 20/15/8 22/17/10 21/16/9 
f 21/16/9 22/17/10 23/18/11 
f 21/16/9 23/18/11 24/19/12 
f 23/18/11 25/20/13 24/19/12 
f 23/18/11 26/21/14 25/20/13 
f 26/21/14 27/22/15 25/20/13 
f 28/23/4 29/24/4 30/25/4 
f 29/24/4 31/26/4 30/25/4 
f 32/27/16 33/28/16 34/28/16 
f 33/28/16 35/29/16 34/28/16 
f 2/30/17 36/31/17 37/32/18 
f 36/31/17 38/33/19 37/32/18 
f 37/32/18 38/33/19 39/34/20 
f 38/33/19 40/35/21 39/34/20 
f 39/34/20 40/35/21 41/36/22 
f 40/35/21 27/37/23 41/36/22 
f 42/38/24 43/39/25 44/40/26 
f 43/39/25 45/41/27 44/40/26 
f 44/40/26 45/41/27 46/42/28 
f 45/41/27 47/43/29 46/42/28 
f 43/39/25 48/44/30 45/41/27 
f 48/44/30 49/45/31 45/41/27 
f 45/41/27 49/45/31 47/43/29 
f 49/45/31 50/46/32 47/43/29 
f 51/47/33 52/48/33 15/10/33 
f 52/48/33 13/8/33 15/10/33 
f 53/49/34 54/50/35 9/51/35 
f 54/50/35 55/52/35 9/51/35 
f 35/53/36 56/29/36 34/54/37 
f 56/29/36 57/28/37 34/54/37 
f 34/54/37 57/28/37 32/55/38 
f 57/28/37 58/27/38 32/55/38 
f 59/56/37 60/57/37 61/58/37 
f 60/57/37 62/59/37 61/58/37 
f 4/60/39 3/61/40 63/62/41 
f 3/61/40 64/63/42 63/62/41 
f 63/62/41 64/63/42 65/64/37 
f 63/62/41 65/64/37 66/65/37 
f 65/64/37 67/66/37 66/65/37 
f 60/57/43 59/56/43 68/67/4 
f 59/56/43 69/68/4 68/67/4 
f 68/67/4 69/68/4 62/59/44 
f 69/68/4 61/58/44 62/59/44 
f 50/45/45 70/44/46 47/41/47 
f 70/44/46 71/39/48 47/41/47 
f 47/41/47 71/39/48 46/40/49 
f 71/39/48 72/38/50 46/40/49 
f 70/44/46 43/69/51 71/39/48 
f 43/69/51 42/70/52 71/39/48 
f 71/39/48 42/70/52 72/38/50 
f 36/71/53 73/72/54 38/73/55 
f 73/72/54 24/74/56 38/73/55 
f 38/73/55 24/74/56 40/75/37 
f 24/74/56 25/76/37 40/75/37 
f 40/75/37 25/76/37 27/77/37 
f 24/74/56 73/72/54 21/78/57 
f 73/72/54 55/79/58 21/78/57 
f 21/78/57 55/79/58 19/80/59 
f 55/79/58 54/81/60 19/80/59 
f 19/80/59 54/81/60 17/82/61 
f 74/83/23 75/84/21 67/85/23 
f 75/84/21 66/86/21 67/85/23 
f 75/84/21 76/87/62 66/86/21 
f 76/87/62 63/88/63 66/86/21 
f 76/87/62 77/89/17 63/88/63 
f 77/89/17 4/90/17 63/88/63 
f 78/91/64 79/92/64 80/93/65 
f 79/92/64 81/94/65 80/93/65 
f 80/93/65 81/94/65 82/95/66 
f 81/94/65 83/96/66 82/95/66 
f 84/97/16 85/98/16 30/25/16 
f 85/98/16 28/23/16 30/25/16 
f 30/25/67 31/26/67 84/97/67 
f 31/26/67 86/99/67 84/97/67 
f 77/89/68 76/87/69 87/100/70 
f 76/87/69 88/101/71 87/100/70 
f 87/100/70 88/101/71 89/102/72 
f 76/87/69 75/84/4 88/101/71 
f 75/84/4 90/103/4 88/101/71 
f 79/92/73 91/104/73 81/94/73 
f 91/104/73 83/105/73 81/94/73 
f 92/106/2 93/107/2 14/9/2 
f 93/107/2 16/11/2 14/9/2 
f 94/108/74 78/91/74 82/109/74 
f 78/91/74 80/93/74 82/109/74 
f 84/25/37 86/26/37 85/23/37 
f 86/26/37 95/24/37 85/23/37 
f 93/110/75 51/111/75 16/11/75 
f 51/111/75 15/10/75 16/11/75 
f 89/112/76 88/113/77 8/114/76 
f 88/113/77 64/63/78 8/114/76 
f 88/113/77 90/115/13 64/63/78 
f 90/115/13 65/64/13 64/63/78 
f 90/115/13 74/116/15 65/64/13 
f 74/116/15 67/66/15 65/64/13 
f 56/29/79 35/53/79 96/28/4 
f 35/53/79 33/54/4 96/28/4 
f 96/28/4 33/54/4 58/27/80 
f 33/54/4 32/55/80 58/27/80 
f 41/36/4 26/21/81 39/34/82 
f 26/21/81 37/32/83 39/34/82 
f 26/21/81 23/18/84 37/32/83 
f 23/18/84 1/117/85 37/32/83 
f 37/32/83 1/117/85 2/30/86 
f 23/18/84 22/17/87 1/117/85 
f 22/17/87 9/51/88 1/117/85 
f 22/17/87 20/15/89 9/51/88 
f 20/15/89 53/49/90 9/51/88 
f 31/26/91 29/24/91 86/99/91 
f 29/24/91 95/118/91 86/99/91 
f 54/119/92 53/49/34 17/120/75 
f 53/49/34 18/13/6 17/120/75 
f 83/96/93 91/94/94 82/95/93 
f 91/94/94 94/93/94 82/95/93 
f 94/93/94 91/94/94 78/91/95 
f 91/94/94 79/92/96 78/91/95 
f 29/24/97 28/23/97 95/118/97 
f 28/23/97 85/98/97 95/118/97 
f 52/121/98 92/122/98 13/8/98 
f 92/122/98 14/9/98 13/8/98 
f 58/27/91 56/29/91 96/123/91 
f 58/27/91 57/123/91 56/29/91 
f 56/29/4 58/27/4 97/124/4 
f 56/29/37 97/124/37 58/27/37 
f 43/69/51 70/44/46 48/125/99 
f 64/63/42 3/61/40 8/114/100 
f 75/84/4 74/83/4 90/103/4 
f 27/22/15 26/21/14 41/36/22 
f 18/13/101 53/49/90 20/15/89 
# 144 faces

